<?xml version="1.0" encoding="utf-8"?>
<svg width="210mm" height="210mm" viewBox="0 0 95 95" version="1.1" id="svg1" xmlns="http://www.w3.org/2000/svg" xmlns:bx="https://boxy-svg.com"><defs id="defs1"><clipPath clipPathUnits="userSpaceOnUse" id="clipPath42"><path d="M 0,612.288 H 858.898 V 0 H 0 Z" transform="translate(-487.39514,-452.53211)" id="path42"/></clipPath><clipPath clipPathUnits="userSpaceOnUse" id="clipPath44"><path d="M 0,612.288 H 858.898 V 0 H 0 Z" transform="translate(-543.93802,-430.00281)" id="path44"/></clipPath><bx:export><bx:file format="svg" units="mm"/></bx:export></defs><g id="layer1" transform="matrix(1, 0, 0, 1, 2.093002, -0.994499)"><g id="g1" transform="matrix(1, 0, 0, 1, -69.18058, -75.337044)"><path id="path41" d="m 0,0 v 0 l 36.055,-22.81 c 5.27,-3.333 10.12,-8.634 13.91,-14.735 0.104,0.168 0.207,0.336 0.31,0.505 2.775,4.571 4.951,9.567 6.268,14.511 C 53.404,-10.762 45.388,1.311 36.055,7.215 L 0,30.025 v 0 0 l -19.021,12.033 c -10.707,6.774 -24.821,10.16 -38.936,10.16 V 22.194 c 14.115,0 28.229,-3.387 38.936,-10.161 z m 0,-43.944 v 0 l 24.618,-15.575 11.437,7.236 c 3.126,1.978 6.098,4.659 8.794,7.778 -2.696,3.118 -5.668,5.798 -8.794,7.775 L 0,-13.92 v 0 0 L -19.021,-1.887 C -29.728,4.887 -43.842,8.274 -57.957,8.274 v -30.025 c 14.115,0 28.229,-3.386 38.936,-10.16 z m 44.866,-30.607 c 1.856,-2.148 3.585,-4.498 5.13,-6.992 2.918,4.709 5.202,9.891 6.561,15.014 -0.619,2.336 -1.438,4.681 -2.415,6.991 -2.301,-5.44 -5.514,-10.658 -9.276,-15.013 M 0,-57.93 v 0 l -19.021,12.033 c -10.707,6.774 -24.821,10.161 -38.936,10.161 v -30.063 c 14.115,0 28.229,-3.387 38.936,-10.161 l 8.825,-5.583 10.196,6.45 v 0 l 13.565,8.582 z m 44.849,-60.65 c 1.85,-2.139 3.574,-4.478 5.116,-6.96 2.926,4.711 5.219,9.901 6.584,15.032 -0.619,2.325 -1.435,4.661 -2.407,6.961 -2.304,-5.448 -5.524,-10.675 -9.293,-15.033 m -7.611,37.037 c -0.393,-0.273 -0.785,-0.551 -1.183,-0.803 l -22.49,-14.228 11.053,-6.993 11.437,7.236 c 3.133,1.981 6.11,4.67 8.811,7.796 -2.358,2.73 -4.928,5.112 -7.628,6.992 m -153.151,-81.542 v 0 l -36.056,22.809 c -5.269,3.334 -10.119,8.634 -13.909,14.736 -0.104,-0.168 -0.208,-0.336 -0.31,-0.505 -2.776,-4.572 -4.951,-9.568 -6.268,-14.511 3.138,-11.768 11.155,-23.84 20.487,-29.744 l 36.056,-22.81 v 0 l 19.021,-12.033 c 10.707,-6.774 24.821,-10.161 38.935,-10.161 v 30.025 c -14.114,0 -28.228,3.387 -38.935,10.16 z m -44.866,74.55 c -1.856,2.149 -3.585,4.498 -5.131,6.992 -2.917,-4.708 -5.202,-9.891 -6.561,-15.014 0.62,-2.335 1.439,-4.681 2.416,-6.99 2.301,5.439 5.514,10.658 9.276,15.012 m 44.866,-30.606 v 0 0 l -24.618,15.574 -11.438,-7.235 c -3.126,-1.978 -6.097,-4.66 -8.793,-7.778 2.696,-3.118 5.668,-5.798 8.793,-7.776 l 36.056,-22.809 v 0 l 19.021,-12.034 c 10.707,-6.774 24.821,-10.16 38.935,-10.16 v 30.024 c -14.114,0 -28.228,3.387 -38.935,10.161 z m -37.238,37.598 c 0.393,0.274 0.785,0.552 1.182,0.804 l 22.491,14.228 -11.053,6.992 -11.438,-7.235 c -3.132,-1.982 -6.109,-4.67 -8.81,-7.797 2.358,-2.729 4.928,-5.111 7.628,-6.992 m 47.433,0 -10.195,-6.45 v 0 l -13.565,-8.581 13.565,-8.582 v 0 0 l 19.021,-12.033 c 10.707,-6.774 24.821,-10.161 38.935,-10.161 v 30.063 c -14.114,0 -28.228,3.387 -38.935,10.161 z m -55.044,37.038 c -1.85,2.139 -3.574,4.477 -5.116,6.96 -2.926,-4.712 -5.219,-9.902 -6.584,-15.032 0.618,-2.326 1.434,-4.662 2.407,-6.961 2.304,5.448 5.523,10.674 9.293,15.033" style="display:inline;fill:#8e1927;fill-opacity:1;fill-rule:nonzero;stroke:none" transform="matrix(0.35277776,0,0,-0.35277776,135.03338,95.065065)" clip-path="url(#clipPath42)"/><path id="path43" d="m 0,0 c -1.317,-4.943 -3.492,-9.94 -6.268,-14.511 -0.102,-0.169 -0.206,-0.337 -0.31,-0.505 -1.542,-2.482 -3.266,-4.821 -5.116,-6.96 -2.696,-3.119 -5.668,-5.8 -8.793,-7.778 l -11.438,-7.235 -11.053,-6.993 -13.565,-8.581 v 0 l -10.195,-6.45 -8.826,-5.584 c -10.707,-6.773 -24.821,-10.16 -38.935,-10.16 v -30.063 c 14.114,0 28.228,3.386 38.935,10.16 l 19.021,12.034 v 0 0 l 13.565,8.581 22.491,14.228 c 0.397,0.252 0.789,0.53 1.182,0.804 2.7,1.88 5.27,4.262 7.628,6.991 3.762,4.355 6.976,9.574 9.276,15.013 0.973,2.3 1.788,4.635 2.407,6.961 0.045,0.168 0.089,0.337 0.132,0.505 0.825,3.242 1.276,6.453 1.276,9.498 v 10.018 C 1.414,-6.817 0.912,-3.421 0,0 m -6.546,-59.013 c -1.546,-2.494 -3.275,-4.844 -5.131,-6.992 -2.701,-3.127 -5.678,-5.815 -8.81,-7.797 l -11.438,-7.236 -24.618,-15.574 v 0 0 l -19.021,-12.033 c -10.707,-6.774 -24.821,-10.161 -38.935,-10.161 v -30.024 c 14.114,0 28.228,3.387 38.935,10.161 l 19.021,12.033 v 0 l 36.056,22.809 c 3.125,1.978 6.097,4.658 8.793,7.776 3.77,4.359 6.989,9.585 9.293,15.033 0.977,2.309 1.796,4.655 2.416,6.991 0.903,3.402 1.399,6.779 1.399,9.972 v 10.083 c 0,3.194 -0.496,6.57 -1.399,9.973 -1.36,-5.123 -3.644,-10.306 -6.561,-15.014 m 6.552,-28.966 c -1.365,-5.131 -3.658,-10.32 -6.584,-15.032 -3.79,-6.102 -8.64,-11.402 -13.909,-14.735 l -36.056,-22.81 v 0 l -19.021,-12.033 c -10.707,-6.774 -24.821,-10.161 -38.935,-10.161 v -30.025 c 14.114,0 28.228,3.387 38.935,10.161 l 19.021,12.033 v 0 l 36.056,22.81 c 9.332,5.904 17.349,17.976 20.487,29.744 0.912,3.421 1.414,6.817 1.414,10.027 v 10.018 c 0,3.045 -0.451,6.256 -1.276,9.498 -0.043,0.168 -0.087,0.337 -0.132,0.505 m -114.505,74.772 c -14.115,0 -28.229,-3.386 -38.936,-10.16 L -172.456,-35.4 v 0 l -13.565,-8.582 -22.49,-14.228 c -0.398,-0.252 -0.79,-0.53 -1.183,-0.803 -2.699,-1.881 -5.27,-4.263 -7.628,-6.992 -3.762,-4.355 -6.975,-9.573 -9.276,-15.013 -0.972,-2.3 -1.788,-4.635 -2.407,-6.961 -0.045,-0.168 -0.089,-0.337 -0.132,-0.505 -0.825,-3.242 -1.276,-6.453 -1.276,-9.498 V -108 c 0,-3.21 0.502,-6.606 1.414,-10.027 1.317,4.943 3.492,9.94 6.268,14.511 0.102,0.169 0.206,0.337 0.31,0.505 1.542,2.482 3.266,4.821 5.116,6.96 2.696,3.119 5.668,5.8 8.794,7.778 l 11.437,7.235 11.053,6.993 13.565,8.582 v 0 l 10.196,6.45 8.825,5.583 c 10.707,6.774 24.821,10.16 38.936,10.16 z m -107.953,-45.806 c 1.545,2.493 3.274,4.843 5.13,6.991 2.701,3.127 5.678,5.816 8.811,7.797 l 11.437,7.236 24.618,15.574 v 0 l 19.021,12.033 c 10.707,6.774 24.821,10.161 38.936,10.161 v 30.024 c -14.115,0 -28.229,-3.387 -38.936,-10.16 L -172.456,8.609 v 0 0 L -208.511,-14.2 c -3.126,-1.978 -6.098,-4.658 -8.794,-7.776 -3.77,-4.359 -6.989,-9.585 -9.293,-15.033 -0.977,-2.309 -1.796,-4.655 -2.416,-6.99 -0.903,-3.403 -1.399,-6.779 -1.399,-9.973 v -10.083 c 0,-3.193 0.496,-6.57 1.399,-9.973 1.36,5.124 3.644,10.306 6.562,15.015 m -6.553,28.965 c 1.365,5.131 3.658,10.32 6.584,15.032 3.79,6.102 8.64,11.402 13.91,14.736 l 36.055,22.809 v 0 l 19.021,12.034 c 10.707,6.773 24.821,10.16 38.936,10.16 v 30.025 c -14.115,0 -28.229,-3.387 -38.936,-10.161 l -19.021,-12.033 v 0 0 l -36.055,-22.81 C -217.844,23.84 -225.86,11.768 -228.999,0 c -0.912,-3.421 -1.414,-6.817 -1.414,-10.027 v -10.018 c 0,-3.045 0.451,-6.256 1.276,-9.498 0.043,-0.168 0.087,-0.337 0.132,-0.505" style="display:inline;fill:#da193b;fill-opacity:1;fill-rule:nonzero;stroke:none" transform="matrix(0.35277776,0,0,-0.35277776,154.98045,103.0129)" clip-path="url(#clipPath44)"/></g></g></svg>