<svg xmlns="http://www.w3.org/2000/svg" viewBox="0 0 61.7 61.7">
  <g id="a" transform="matrix(1, 0, 0, 1, -283.532684, -149.609787)">
    <g transform="matrix(1, 0, 0, 1, 282.27417, 150.089783)">
      <path d="M41.66,17.69L32.35,3.65l-9.32,14.05h4.95v21.26h8.74V17.69h4.95Z" style="fill: rgb(0, 0, 255);"></path>
    </g>
    <g transform="matrix(1, 0, 0, 1, 282.27417, 150.089783)">
      <path d="M19.19,56.34l-16.8-1.29,7.73-14.98,2.41,4.32,18.57-10.35,4.25,7.63-18.57,10.35,2.41,4.32Z" style="fill: rgb(255, 99, 71);"></path>
    </g>
    <g transform="matrix(1, 0, 0, 1, 282.27417, 150.089783)">
      <path d="M45.02,56.34l16.8-1.29-7.73-14.98-2.41,4.32-18.57-10.35-4.25,7.63,18.57,10.35-2.41,4.32Z" style="fill: rgb(46, 139, 87);"></path>
    </g>
    <g transform="matrix(1, 0, 0, 1, 282.27417, 150.089783)">
      <polygon points="32.109 49.86 21.559 42.7 21.559 29.76 32.109 36.92 32.109 49.86" style="fill: rgb(255, 99, 71);"></polygon>
    </g>
    <g transform="matrix(1, 0, 0, 1, 282.27417, 150.089783)">
      <polygon points="31.959 49.86 42.509 42.7 42.509 29.76 31.959 36.92 31.959 49.86" style="fill: rgb(46, 139, 87);"></polygon>
    </g>
    <g transform="matrix(1, 0, 0, 1, 282.27417, 150.089783)">
      <polygon points="42.27 29.92 31.99 37.01 21.56 29.92 32.02 24.42 42.27 29.92" style="fill: rgb(0, 0, 255);"></polygon>
    </g>
  </g>
</svg>