<svg xmlns="http://www.w3.org/2000/svg" viewBox="0 0 96 96" xmlns:bx="https://boxy-svg.com">
  <defs>
    <clipPath clipPathUnits="userSpaceOnUse" id="clipPath42">
      <path d="M 0,612.288 H 858.898 V 0 H 0 Z" transform="translate(-487.39514,-452.53211)" id="path42"></path>
    </clipPath>
    <clipPath clipPathUnits="userSpaceOnUse" id="clipPath44">
      <path d="M 0,612.288 H 858.898 V 0 H 0 Z" transform="translate(-543.93802,-430.00281)" id="path44"></path>
    </clipPath>
    <bx:export>
      <bx:file format="svg" units="mm"></bx:file>
    </bx:export>
  </defs>
  <rect width="96" height="96" style="fill: rgb(255, 255, 255);" rx="20" ry="20"></rect>
  <g id="svg1" transform="matrix(1, 0, 0, 1, -207.924164, -136.044235)">
    <g id="layer1" transform="matrix(1, 0, 0, 1, 210.517166, 135.549728)">
      <g id="g1" transform="matrix(1, 0, 0, 1, -69.18058, -75.337044)">
        <path id="path41" d="M 0 0 L 36.055 -22.81 C 41.325 -26.143 46.175 -31.444 49.965 -37.545 C 50.069 -37.377 50.172000000000004 -37.209 50.275000000000006 -37.04 C 53.050000000000004 -32.469 55.226000000000006 -27.473 56.543000000000006 -22.529 C 53.404 -10.762 45.388 1.311 36.055 7.215 L 0 30.025 L -19.021 42.058 C -29.728 48.832 -43.842 52.218 -57.957 52.218 L -57.957 22.194 C -43.842 22.194 -29.728 18.807 -19.021 12.033 L 0 0 Z" style="display: inline; fill-opacity: 1; fill-rule: nonzero; stroke: none; fill: rgb(153, 16, 32);" transform="matrix(0.35277776,0,0,-0.35277776,135.03338,95.065065)" clip-path="url(#clipPath42)"></path>
        <path id="path41" d="M -160.762 -44.50499999999998 C -162.612 -42.36599999999998 -164.336 -40.02799999999998 -165.878 -37.54499999999998 C -168.80399999999997 -42.25699999999998 -171.09699999999998 -47.44699999999998 -172.462 -52.576999999999984 C -171.844 -54.902999999999984 -171.028 -57.23899999999998 -170.05499999999998 -59.53799999999998 C -167.75099999999998 -54.08999999999998 -164.53199999999998 -48.86399999999998 -160.76199999999997 -44.50499999999998" style="display: inline; fill-opacity: 1; fill-rule: nonzero; stroke: none; fill: rgb(153, 16, 32);" transform="matrix(0.35277776,0,0,-0.35277776,135.03338,95.065065)" clip-path="url(#clipPath42)"></path>
        <path id="path41" d="M -105.71800000000002 -81.54299999999998 L -115.91300000000001 -87.99299999999998 L -129.478 -96.57399999999998 L -115.91300000000001 -105.15599999999998 L -96.89200000000001 -117.18899999999998 C -86.185 -123.96299999999998 -72.07100000000001 -127.34999999999998 -57.95700000000001 -127.34999999999998 L -57.95700000000001 -97.28699999999998 C -72.07100000000001 -97.28699999999998 -86.185 -93.89999999999998 -96.89200000000001 -87.12599999999998 L -105.71800000000002 -81.54299999999998 Z" style="display: inline; fill-opacity: 1; fill-rule: nonzero; stroke: none; fill: rgb(153, 16, 32);" transform="matrix(0.35277776,0,0,-0.35277776,135.03338,95.065065)" clip-path="url(#clipPath42)"></path>
        <path id="path41" d="M -153.151 -81.54299999999996 C -152.758 -81.26899999999996 -152.366 -80.99099999999996 -151.96900000000002 -80.73899999999996 L -129.478 -66.51099999999997 L -140.531 -59.51899999999997 L -151.969 -66.75399999999998 C -155.101 -68.73599999999998 -158.078 -71.42399999999998 -160.779 -74.55099999999997 C -158.421 -77.27999999999997 -155.851 -79.66199999999998 -153.151 -81.54299999999998" style="display: inline; fill-opacity: 1; fill-rule: nonzero; stroke: none; fill: rgb(153, 16, 32);" transform="matrix(0.35277776,0,0,-0.35277776,135.03338,95.065065)" clip-path="url(#clipPath42)"></path>
        <path id="path41" d="M -115.913 -119.14099999999996 L -140.531 -103.56699999999996 L -151.969 -110.80199999999996 C -155.095 -112.77999999999996 -158.066 -115.46199999999996 -160.762 -118.57999999999997 C -158.066 -121.69799999999996 -155.094 -124.37799999999997 -151.969 -126.35599999999997 L -115.913 -149.16499999999996 L -96.892 -161.19899999999996 C -86.185 -167.97299999999996 -72.071 -171.35899999999995 -57.956999999999994 -171.35899999999995 L -57.956999999999994 -141.33499999999995 C -72.071 -141.33499999999995 -86.185 -137.94799999999995 -96.892 -131.17399999999995 L -115.913 -119.14099999999996 Z" style="display: inline; fill-opacity: 1; fill-rule: nonzero; stroke: none; fill: rgb(28, 142, 25);" transform="matrix(0.35277776,0,0,-0.35277776,135.03338,95.065065)" clip-path="url(#clipPath42)"></path>
        <path id="path41" d="M -160.779 -88.53499999999998 C -162.635 -86.38599999999998 -164.364 -84.03699999999998 -165.91 -81.54299999999998 C -168.827 -86.25099999999998 -171.112 -91.43399999999998 -172.471 -96.55699999999997 C -171.851 -98.89199999999997 -171.032 -101.23799999999997 -170.055 -103.54699999999997 C -167.75400000000002 -98.10799999999998 -164.541 -92.88899999999997 -160.779 -88.53499999999997" style="display: inline; fill-opacity: 1; fill-rule: nonzero; stroke: none; fill: rgb(28, 142, 25);" transform="matrix(0.35277776,0,0,-0.35277776,135.03338,95.065065)" clip-path="url(#clipPath42)"></path>
        <path id="path41" d="M -115.91300000000001 -163.08499999999998 L -151.969 -140.27599999999998 C -157.238 -136.94199999999998 -162.088 -131.642 -165.878 -125.53999999999998 C -165.982 -125.70799999999998 -166.08599999999998 -125.87599999999998 -166.188 -126.04499999999997 C -168.964 -130.61699999999996 -171.13899999999998 -135.61299999999997 -172.456 -140.55599999999998 C -169.31799999999998 -152.32399999999998 -161.301 -164.396 -151.969 -170.29999999999998 L -115.913 -193.10999999999999 L -96.892 -205.14299999999997 C -86.185 -211.91699999999997 -72.071 -215.30399999999997 -57.956999999999994 -215.30399999999997 L -57.956999999999994 -185.27899999999997 C -72.071 -185.27899999999997 -86.185 -181.89199999999997 -96.892 -175.11899999999997 L -115.91300000000001 -163.08499999999998 Z" style="display: inline; fill-opacity: 1; fill-rule: nonzero; stroke: none; fill: rgb(25, 76, 142);" transform="matrix(0.35277776,0,0,-0.35277776,135.03338,95.065065)" clip-path="url(#clipPath42)"></path>
        <path id="path41" d="M 37.238 -81.543 C 36.845 -81.816 36.453 -82.09400000000001 36.055 -82.346 L 13.565000000000001 -96.574 L 24.618000000000002 -103.567 L 36.055 -96.33099999999999 C 39.188 -94.35 42.165 -91.66099999999999 44.866 -88.53499999999998 C 42.508 -85.80499999999998 39.938 -83.42299999999999 37.238 -81.54299999999998" style="display: inline; fill-opacity: 1; fill-rule: nonzero; stroke: none; fill: rgb(25, 76, 142);" transform="matrix(0.35277776,0,0,-0.35277776,135.03338,95.065065)" clip-path="url(#clipPath42)"></path>
        <path id="path41" d="M 44.849 -118.58 C 46.699 -120.719 48.422999999999995 -123.05799999999999 49.964999999999996 -125.53999999999999 C 52.891 -120.829 55.184 -115.639 56.54899999999999 -110.508 C 55.92999999999999 -108.18299999999999 55.11399999999999 -105.847 54.141999999999996 -103.547 C 51.837999999999994 -108.995 48.617999999999995 -114.222 44.849 -118.58" style="display: inline; fill-opacity: 1; fill-rule: nonzero; stroke: none; fill: rgb(25, 76, 142);" transform="matrix(0.35277776,0,0,-0.35277776,135.03338,95.065065)" clip-path="url(#clipPath42)"></path>
        <path id="path41" d="M 0 -57.93 L -19.021 -45.897 C -29.728 -39.123 -43.842 -35.736 -57.957 -35.736 L -57.957 -65.79899999999999 C -43.842 -65.79899999999999 -29.728 -69.18599999999999 -19.021 -75.96 L -10.196000000000002 -81.54299999999999 L -1.7763568394002505e-15 -75.09299999999999 L 13.564999999999998 -66.511 L 0 -57.93 Z" style="display: inline; fill-opacity: 1; fill-rule: nonzero; stroke: none; fill: rgb(25, 76, 142);" transform="matrix(0.35277776,0,0,-0.35277776,135.03338,95.065065)" clip-path="url(#clipPath42)"></path>
        <path id="path41" d="M 44.866 -74.551 C 46.722 -76.699 48.451 -79.049 49.996 -81.543 C 52.914 -76.834 55.198 -71.652 56.557 -66.52900000000001 C 55.938 -64.19300000000001 55.119 -61.84800000000001 54.142 -59.53800000000001 C 51.841 -64.97800000000001 48.628 -70.19600000000001 44.866 -74.55100000000002" style="display: inline; fill-opacity: 1; fill-rule: nonzero; stroke: none; fill: rgb(28, 142, 25);" transform="matrix(0.35277776,0,0,-0.35277776,135.03338,95.065065)" clip-path="url(#clipPath42)"></path>
        <path id="path41" d="M 0 -43.944 L 24.618 -59.519000000000005 L 36.055 -52.28300000000001 C 39.181 -50.30500000000001 42.153 -47.62400000000001 44.849000000000004 -44.50500000000001 C 42.153000000000006 -41.38700000000001 39.181000000000004 -38.70700000000001 36.05500000000001 -36.73000000000001 L 0 -13.92 L -19.021 -1.887 C -29.728 4.8870000000000005 -43.842 8.274000000000001 -57.957 8.274000000000001 L -57.957 -21.750999999999998 C -43.842 -21.750999999999998 -29.728 -25.136999999999997 -19.021 -31.910999999999998 L 0 -43.944 Z" style="display: inline; fill-opacity: 1; fill-rule: nonzero; stroke: none; fill: rgb(28, 142, 25);" transform="matrix(0.35277776,0,0,-0.35277776,135.03338,95.065065)" clip-path="url(#clipPath42)"></path>
        <path id="path43" d="M 0 0 C -1.317 -4.943 -3.492 -9.94 -6.268 -14.511 C -6.37 -14.68 -6.474 -14.847999999999999 -6.577999999999999 -15.016 C -8.12 -17.498 -9.844 -19.837 -11.693999999999999 -21.976 C -14.389999999999999 -25.095 -17.362 -27.776 -20.487 -29.753999999999998 L -31.924999999999997 -36.989 L -42.977999999999994 -43.982 L -56.54299999999999 -52.563 L -66.738 -59.013000000000005 L -75.564 -64.59700000000001 C -86.27099999999999 -71.37 -100.38499999999999 -74.757 -114.499 -74.757 L -114.499 -104.82000000000001 C -100.38499999999999 -104.82000000000001 -86.27099999999999 -101.43400000000001 -75.564 -94.66000000000001 L -56.54299999999999 -82.626 L -42.977999999999994 -74.045 L -20.486999999999995 -59.817 C -20.089999999999996 -59.565 -19.697999999999993 -59.287 -19.304999999999996 -59.013 C -16.604999999999997 -57.132999999999996 -14.034999999999997 -54.751 -11.676999999999996 -52.022 C -7.914999999999996 -47.667 -4.700999999999996 -42.448 -2.4009999999999962 -37.009 C -1.4279999999999964 -34.709 -0.6129999999999964 -32.374 0.00600000000000378 -30.048000000000002 C 0.05100000000000378 -29.880000000000003 0.09500000000000378 -29.711000000000002 0.1380000000000038 -29.543000000000003 C 0.9630000000000039 -26.301000000000002 1.4140000000000037 -23.090000000000003 1.4140000000000037 -20.045 L 1.4140000000000037 -10.027000000000001 C 1.4140000000000001 -6.817 0.912 -3.4210000000000003 0 0" style="display: inline; fill-opacity: 1; fill-rule: nonzero; stroke: none; stroke-opacity: 0.18; fill: rgb(216, 9, 47);" transform="matrix(0.35277776,0,0,-0.35277776,154.98045,103.0129)" clip-path="url(#clipPath44)"></path>
        <path id="path43" d="M -229.005 -30.048000000000005 C -227.64 -24.917000000000005 -225.347 -19.728000000000005 -222.421 -15.016000000000005 C -218.631 -8.914000000000005 -213.781 -3.614000000000006 -208.511 -0.2800000000000047 L -172.456 22.528999999999996 L -153.435 34.562999999999995 C -142.728 41.336 -128.614 44.723 -114.499 44.723 L -114.499 74.74799999999999 C -128.614 74.74799999999999 -142.728 71.36099999999999 -153.435 64.58699999999999 L -172.45600000000002 52.55399999999999 L -208.51100000000002 29.74399999999999 C -217.844 23.84 -225.86 11.768 -228.999 0 C -229.911 -3.4210000000000003 -230.41299999999998 -6.817 -230.41299999999998 -10.027 L -230.41299999999998 -20.045 C -230.41299999999998 -23.090000000000003 -229.962 -26.301000000000002 -229.13699999999997 -29.543 C -229.09399999999997 -29.711 -229.04999999999998 -29.88 -229.00499999999997 -30.048" style="display: inline; fill-opacity: 1; fill-rule: nonzero; stroke: none; stroke-opacity: 0.18; fill: rgb(216, 9, 47);" transform="matrix(0.35277776,0,0,-0.35277776,154.98045,103.0129)" clip-path="url(#clipPath44)"></path>
        <path id="path43" d="M -222.452 -59.01299999999998 C -220.907 -56.519999999999975 -219.178 -54.16999999999997 -217.322 -52.02199999999998 C -214.621 -48.894999999999975 -211.644 -46.205999999999975 -208.511 -44.22499999999998 L -197.07399999999998 -36.98899999999998 L -172.456 -21.414999999999985 L -153.435 -9.381999999999985 C -142.728 -2.6079999999999854 -128.614 0.7790000000000141 -114.499 0.7790000000000141 L -114.499 30.803000000000015 C -128.614 30.803000000000015 -142.728 27.416000000000015 -153.435 20.643000000000015 L -172.456 8.609 L -208.511 -14.2 C -211.637 -16.178 -214.609 -18.858 -217.305 -21.976 C -221.07500000000002 -26.335 -224.294 -31.561 -226.598 -37.009 C -227.57500000000002 -39.318 -228.394 -41.664 -229.014 -43.999 C -229.917 -47.402 -230.413 -50.778000000000006 -230.413 -53.972 L -230.413 -64.055 C -230.413 -67.248 -229.917 -70.625 -229.014 -74.028 C -227.654 -68.90400000000001 -225.37 -63.72200000000001 -222.452 -59.013000000000005" style="display: inline; fill-opacity: 1; fill-rule: nonzero; stroke: none; stroke-opacity: 0.18; fill: rgb(51, 218, 25);" transform="matrix(0.35277776,0,0,-0.35277776,154.98045,103.0129)" clip-path="url(#clipPath44)"></path>
        <path id="path43" d="M -114.49900000000001 -13.20699999999998 C -128.614 -13.20699999999998 -142.728 -16.59299999999998 -153.435 -23.36699999999998 L -172.456 -35.4 L -186.021 -43.982 L -208.511 -58.21 C -208.909 -58.462 -209.301 -58.74 -209.694 -59.013 C -212.393 -60.894 -214.964 -63.275999999999996 -217.322 -66.005 C -221.084 -70.36 -224.297 -75.578 -226.598 -81.018 C -227.57000000000002 -83.318 -228.38600000000002 -85.653 -229.00500000000002 -87.979 C -229.05 -88.147 -229.09400000000002 -88.316 -229.13700000000003 -88.484 C -229.96200000000002 -91.726 -230.41300000000004 -94.937 -230.41300000000004 -97.982 L -230.41300000000004 -108 C -230.41300000000004 -111.21 -229.91100000000003 -114.606 -228.99900000000005 -118.027 C -227.68200000000004 -113.084 -225.50700000000006 -108.087 -222.73100000000005 -103.516 C -222.62900000000005 -103.34700000000001 -222.52500000000006 -103.179 -222.42100000000005 -103.01100000000001 C -220.87900000000005 -100.52900000000001 -219.15500000000006 -98.19000000000001 -217.30500000000006 -96.05100000000002 C -214.60900000000007 -92.93200000000002 -211.63700000000006 -90.25100000000002 -208.51100000000005 -88.27300000000001 L -197.07400000000004 -81.03800000000001 L -186.02100000000004 -74.04500000000002 L -172.45600000000005 -65.46300000000002 L -162.26000000000005 -59.01300000000002 L -153.43500000000006 -53.43000000000002 C -142.72800000000007 -46.65600000000002 -128.61400000000006 -43.270000000000024 -114.49900000000005 -43.270000000000024 L -114.49900000000001 -13.20699999999998 Z" style="display: inline; fill-opacity: 1; fill-rule: nonzero; stroke: none; stroke-opacity: 0.18; fill: rgb(25, 129, 218);" transform="matrix(0.35277776,0,0,-0.35277776,154.98045,103.0129)" clip-path="url(#clipPath44)"></path>
        <path id="path43" d="M 0.005999999999989569 -87.97899999999998 C -1.3590000000000104 -93.10999999999999 -3.6520000000000103 -98.29899999999998 -6.57800000000001 -103.01099999999998 C -10.36800000000001 -109.11299999999999 -15.21800000000001 -114.41299999999998 -20.48700000000001 -117.74599999999998 L -56.543000000000006 -140.55599999999998 L -75.56400000000001 -152.58899999999997 C -86.27100000000002 -159.36299999999997 -100.385 -162.74999999999997 -114.49900000000001 -162.74999999999997 L -114.49900000000001 -192.77499999999998 C -100.385 -192.77499999999998 -86.27100000000002 -189.38799999999998 -75.56400000000001 -182.61399999999998 L -56.543000000000006 -170.581 L -20.48700000000001 -147.771 C -11.155000000000008 -141.867 -3.138000000000009 -129.795 -1.0658141036401503e-14 -118.02699999999999 C 0.9119999999999894 -114.60599999999998 1.4139999999999895 -111.20999999999998 1.4139999999999895 -107.99999999999999 L 1.4139999999999895 -97.98199999999999 C 1.4139999999999895 -94.93699999999998 0.9629999999999894 -91.72599999999998 0.13799999999998946 -88.48399999999998 C 0.09499999999998945 -88.31599999999997 0.05099999999998946 -88.14699999999998 0.005999999999989458 -87.97899999999998" style="display: inline; fill-opacity: 1; fill-rule: nonzero; stroke: none; stroke-opacity: 0.18; fill: rgb(25, 129, 218);" transform="matrix(0.35277776,0,0,-0.35277776,154.98045,103.0129)" clip-path="url(#clipPath44)"></path>
        <path id="path43" d="M -6.546 -59.013 C -8.092 -61.507 -9.821 -63.857 -11.677 -66.005 C -14.378 -69.13199999999999 -17.355 -71.82 -20.487000000000002 -73.80199999999999 L -31.925000000000004 -81.038 L -56.543000000000006 -96.612 L -75.56400000000001 -108.645 C -86.27100000000002 -115.419 -100.385 -118.806 -114.49900000000001 -118.806 L -114.49900000000001 -148.82999999999998 C -100.385 -148.82999999999998 -86.27100000000002 -145.44299999999998 -75.56400000000001 -138.66899999999998 L -56.543000000000006 -126.63599999999998 L -20.48700000000001 -103.82699999999998 C -17.36200000000001 -101.84899999999999 -14.390000000000008 -99.16899999999998 -11.69400000000001 -96.05099999999999 C -7.92400000000001 -91.692 -4.70500000000001 -86.46599999999998 -2.4010000000000105 -81.01799999999999 C -1.4240000000000106 -78.70899999999999 -0.6050000000000106 -76.36299999999999 0.014999999999989466 -74.02699999999999 C 0.9179999999999895 -70.62499999999999 1.4139999999999895 -67.24799999999999 1.4139999999999895 -64.05499999999999 L 1.4139999999999895 -53.971999999999994 C 1.4139999999999895 -50.77799999999999 0.9179999999999895 -47.401999999999994 0.014999999999989466 -43.998999999999995 C -1.3450000000000104 -49.12199999999999 -3.6290000000000107 -54.30499999999999 -6.54600000000001 -59.01299999999999" style="display: inline; fill-opacity: 1; fill-rule: nonzero; stroke: none; stroke-opacity: 0.18; fill: rgb(51, 218, 25);" transform="matrix(0.35277776,0,0,-0.35277776,154.98045,103.0129)" clip-path="url(#clipPath44)"></path>
      </g>
    </g>
  </g>
</svg>