<?xml version="1.0" encoding="UTF-8" standalone="no"?>
<!-- Created with Inkscape (http://www.inkscape.org/) -->

<svg
   version="1.1"
   id="svg2"
   width="488.82629"
   height="157.40219"
   viewBox="0 0 488.82631 157.40219"
   sodipodi:docname="EM_logo_201110_n.ai.no.2.svg"
   xml:space="preserve"
   inkscape:version="1.2.2 (732a01da63, 2022-12-09)"
   xmlns:inkscape="http://www.inkscape.org/namespaces/inkscape"
   xmlns:sodipodi="http://sodipodi.sourceforge.net/DTD/sodipodi-0.dtd"
   xmlns="http://www.w3.org/2000/svg"
   xmlns:svg="http://www.w3.org/2000/svg"><defs
     id="defs6"><clipPath
       clipPathUnits="userSpaceOnUse"
       id="clipPath42-83"><path
         d="M 0,612.288 H 858.898 V 0 H 0 Z"
         transform="translate(-487.39514,-452.53211)"
         id="path42-6" /></clipPath><clipPath
       clipPathUnits="userSpaceOnUse"
       id="clipPath44-5"><path
         d="M 0,612.288 H 858.898 V 0 H 0 Z"
         transform="translate(-543.93802,-430.00281)"
         id="path44-1" /></clipPath></defs><sodipodi:namedview
     id="namedview4"
     pagecolor="#ffffff"
     bordercolor="#000000"
     borderopacity="0.25"
     inkscape:showpageshadow="2"
     inkscape:pageopacity="0.0"
     inkscape:pagecheckerboard="0"
     inkscape:deskcolor="#d1d1d1"
     showgrid="false"
     inkscape:zoom="1.0154535"
     inkscape:cx="396.37462"
     inkscape:cy="392.92789"
     inkscape:window-width="1920"
     inkscape:window-height="1009"
     inkscape:window-x="-8"
     inkscape:window-y="1072"
     inkscape:window-maximized="1"
     inkscape:current-layer="g10" /><g
     id="g10"
     inkscape:groupmode="layer"
     inkscape:label="Page 1"
     transform="matrix(1.3333333,0,0,-1.3333333,-273.43627,478.52246)"><text
       xml:space="preserve"
       transform="scale(1,-1)"
       style="font-variant:normal;font-weight:bold;font-stretch:normal;font-size:72px;font-family:'Century Gothic';-inkscape-font-specification:CenturyGothic-Bold;writing-mode:lr-tb;fill:#231f20;fill-opacity:1;fill-rule:nonzero;stroke:none"
       id="text14-9-9-8"
       x="322.19305"
       y="-279.64346"
       inkscape:export-filename="text14-9-9.png"
       inkscape:export-xdpi="96"
       inkscape:export-ydpi="96"><tspan
         x="322.19305"
         sodipodi:role="line"
         id="tspan12-6-3-3"
         y="-279.64346"
         style="font-size:72px">pyemsi</tspan></text><g
       id="svg1"
       transform="matrix(1.2508629,0,0,-1.2508629,-63.89892,530.08013)"><g
         id="layer1-3"
         transform="translate(210.51717,135.54973)"><g
           id="g1"
           transform="translate(-69.18058,-75.337044)"><path
             id="path41"
             d="m 0,0 36.055,-22.81 c 5.27,-3.333 10.12,-8.634 13.91,-14.735 0.104,0.168 0.207,0.336 0.31,0.505 2.775,4.571 4.951,9.567 6.268,14.511 C 53.404,-10.762 45.388,1.311 36.055,7.215 L 0,30.025 -19.021,42.058 c -10.707,6.774 -24.821,10.16 -38.936,10.16 V 22.194 c 14.115,0 28.229,-3.387 38.936,-10.161 z"
             style="display:inline;fill:#991020;fill-opacity:1;fill-rule:nonzero;stroke:none"
             transform="matrix(0.35277776,0,0,-0.35277776,135.03338,95.065065)"
             clip-path="url(#clipPath42-83)" /><path
             id="path504"
             d="m -160.762,-44.505 c -1.85,2.139 -3.574,4.477 -5.116,6.96 -2.926,-4.712 -5.219,-9.902 -6.584,-15.032 0.618,-2.326 1.434,-4.662 2.407,-6.961 2.304,5.448 5.523,10.674 9.293,15.033"
             style="display:inline;fill:#991020;fill-opacity:1;fill-rule:nonzero;stroke:none"
             transform="matrix(0.35277776,0,0,-0.35277776,135.03338,95.065065)"
             clip-path="url(#clipPath42-83)" /><path
             id="path506"
             d="m -105.718,-81.543 -10.195,-6.45 -13.565,-8.581 13.565,-8.582 19.021,-12.033 c 10.707,-6.774 24.821,-10.161 38.935,-10.161 v 30.063 c -14.114,0 -28.228,3.387 -38.935,10.161 z"
             style="display:inline;fill:#991020;fill-opacity:1;fill-rule:nonzero;stroke:none"
             transform="matrix(0.35277776,0,0,-0.35277776,135.03338,95.065065)"
             clip-path="url(#clipPath42-83)" /><path
             id="path508"
             d="m -153.151,-81.543 c 0.393,0.274 0.785,0.552 1.182,0.804 l 22.491,14.228 -11.053,6.992 -11.438,-7.235 c -3.132,-1.982 -6.109,-4.67 -8.81,-7.797 2.358,-2.729 4.928,-5.111 7.628,-6.992"
             style="display:inline;fill:#991020;fill-opacity:1;fill-rule:nonzero;stroke:none"
             transform="matrix(0.35277776,0,0,-0.35277776,135.03338,95.065065)"
             clip-path="url(#clipPath42-83)" /><path
             id="path510"
             d="m -115.913,-119.141 -24.618,15.574 -11.438,-7.235 c -3.126,-1.978 -6.097,-4.66 -8.793,-7.778 2.696,-3.118 5.668,-5.798 8.793,-7.776 l 36.056,-22.809 19.021,-12.034 c 10.707,-6.774 24.821,-10.16 38.935,-10.16 v 30.024 c -14.114,0 -28.228,3.387 -38.935,10.161 z"
             style="display:inline;fill:#1c8e19;fill-opacity:1;fill-rule:nonzero;stroke:none"
             transform="matrix(0.35277776,0,0,-0.35277776,135.03338,95.065065)"
             clip-path="url(#clipPath42-83)" /><path
             id="path512"
             d="m -160.779,-88.535 c -1.856,2.149 -3.585,4.498 -5.131,6.992 -2.917,-4.708 -5.202,-9.891 -6.561,-15.014 0.62,-2.335 1.439,-4.681 2.416,-6.99 2.301,5.439 5.514,10.658 9.276,15.012"
             style="display:inline;fill:#1c8e19;fill-opacity:1;fill-rule:nonzero;stroke:none"
             transform="matrix(0.35277776,0,0,-0.35277776,135.03338,95.065065)"
             clip-path="url(#clipPath42-83)" /><path
             id="path514"
             d="m -115.913,-163.085 -36.056,22.809 c -5.269,3.334 -10.119,8.634 -13.909,14.736 -0.104,-0.168 -0.208,-0.336 -0.31,-0.505 -2.776,-4.572 -4.951,-9.568 -6.268,-14.511 3.138,-11.768 11.155,-23.84 20.487,-29.744 l 36.056,-22.81 19.021,-12.033 c 10.707,-6.774 24.821,-10.161 38.935,-10.161 v 30.025 c -14.114,0 -28.228,3.387 -38.935,10.16 z"
             style="display:inline;fill:#194c8e;fill-opacity:1;fill-rule:nonzero;stroke:none"
             transform="matrix(0.35277776,0,0,-0.35277776,135.03338,95.065065)"
             clip-path="url(#clipPath42-83)" /><path
             id="path516"
             d="m 37.238,-81.543 c -0.393,-0.273 -0.785,-0.551 -1.183,-0.803 l -22.49,-14.228 11.053,-6.993 11.437,7.236 c 3.133,1.981 6.11,4.67 8.811,7.796 -2.358,2.73 -4.928,5.112 -7.628,6.992"
             style="display:inline;fill:#194c8e;fill-opacity:1;fill-rule:nonzero;stroke:none"
             transform="matrix(0.35277776,0,0,-0.35277776,135.03338,95.065065)"
             clip-path="url(#clipPath42-83)" /><path
             id="path518"
             d="m 44.849,-118.58 c 1.85,-2.139 3.574,-4.478 5.116,-6.96 2.926,4.711 5.219,9.901 6.584,15.032 -0.619,2.325 -1.435,4.661 -2.407,6.961 -2.304,-5.448 -5.524,-10.675 -9.293,-15.033"
             style="display:inline;fill:#194c8e;fill-opacity:1;fill-rule:nonzero;stroke:none"
             transform="matrix(0.35277776,0,0,-0.35277776,135.03338,95.065065)"
             clip-path="url(#clipPath42-83)" /><path
             id="path520"
             d="m 0,-57.93 -19.021,12.033 c -10.707,6.774 -24.821,10.161 -38.936,10.161 v -30.063 c 14.115,0 28.229,-3.387 38.936,-10.161 l 8.825,-5.583 10.196,6.45 13.565,8.582 z"
             style="display:inline;fill:#194c8e;fill-opacity:1;fill-rule:nonzero;stroke:none"
             transform="matrix(0.35277776,0,0,-0.35277776,135.03338,95.065065)"
             clip-path="url(#clipPath42-83)" /><path
             id="path522"
             d="m 44.866,-74.551 c 1.856,-2.148 3.585,-4.498 5.13,-6.992 2.918,4.709 5.202,9.891 6.561,15.014 -0.619,2.336 -1.438,4.681 -2.415,6.991 -2.301,-5.44 -5.514,-10.658 -9.276,-15.013"
             style="display:inline;fill:#1c8e19;fill-opacity:1;fill-rule:nonzero;stroke:none"
             transform="matrix(0.35277776,0,0,-0.35277776,135.03338,95.065065)"
             clip-path="url(#clipPath42-83)" /><path
             id="path524"
             d="m 0,-43.944 24.618,-15.575 11.437,7.236 c 3.126,1.978 6.098,4.659 8.794,7.778 -2.696,3.118 -5.668,5.798 -8.794,7.775 L 0,-13.92 -19.021,-1.887 C -29.728,4.887 -43.842,8.274 -57.957,8.274 v -30.025 c 14.115,0 28.229,-3.386 38.936,-10.16 z"
             style="display:inline;fill:#1c8e19;fill-opacity:1;fill-rule:nonzero;stroke:none"
             transform="matrix(0.35277776,0,0,-0.35277776,135.03338,95.065065)"
             clip-path="url(#clipPath42-83)" /><path
             id="path43"
             d="m 0,0 c -1.317,-4.943 -3.492,-9.94 -6.268,-14.511 -0.102,-0.169 -0.206,-0.337 -0.31,-0.505 -1.542,-2.482 -3.266,-4.821 -5.116,-6.96 -2.696,-3.119 -5.668,-5.8 -8.793,-7.778 l -11.438,-7.235 -11.053,-6.993 -13.565,-8.581 -10.195,-6.45 -8.826,-5.584 c -10.707,-6.773 -24.821,-10.16 -38.935,-10.16 v -30.063 c 14.114,0 28.228,3.386 38.935,10.16 l 19.021,12.034 13.565,8.581 22.491,14.228 c 0.397,0.252 0.789,0.53 1.182,0.804 2.7,1.88 5.27,4.262 7.628,6.991 3.762,4.355 6.976,9.574 9.276,15.013 0.973,2.3 1.788,4.635 2.407,6.961 0.045,0.168 0.089,0.337 0.132,0.505 0.825,3.242 1.276,6.453 1.276,9.498 v 10.018 C 1.414,-6.817 0.912,-3.421 0,0"
             style="display:inline;fill:#d8092f;fill-opacity:1;fill-rule:nonzero;stroke:none;stroke-opacity:0.18"
             transform="matrix(0.35277776,0,0,-0.35277776,154.98045,103.0129)"
             clip-path="url(#clipPath44-5)" /><path
             id="path527"
             d="m -229.005,-30.048 c 1.365,5.131 3.658,10.32 6.584,15.032 3.79,6.102 8.64,11.402 13.91,14.736 l 36.055,22.809 19.021,12.034 c 10.707,6.773 24.821,10.16 38.936,10.16 v 30.025 c -14.115,0 -28.229,-3.387 -38.936,-10.161 l -19.021,-12.033 -36.055,-22.81 C -217.844,23.84 -225.86,11.768 -228.999,0 c -0.912,-3.421 -1.414,-6.817 -1.414,-10.027 v -10.018 c 0,-3.045 0.451,-6.256 1.276,-9.498 0.043,-0.168 0.087,-0.337 0.132,-0.505"
             style="display:inline;fill:#d8092f;fill-opacity:1;fill-rule:nonzero;stroke:none;stroke-opacity:0.18"
             transform="matrix(0.35277776,0,0,-0.35277776,154.98045,103.0129)"
             clip-path="url(#clipPath44-5)" /><path
             id="path529"
             d="m -222.452,-59.013 c 1.545,2.493 3.274,4.843 5.13,6.991 2.701,3.127 5.678,5.816 8.811,7.797 l 11.437,7.236 24.618,15.574 19.021,12.033 c 10.707,6.774 24.821,10.161 38.936,10.161 v 30.024 c -14.115,0 -28.229,-3.387 -38.936,-10.16 L -172.456,8.609 -208.511,-14.2 c -3.126,-1.978 -6.098,-4.658 -8.794,-7.776 -3.77,-4.359 -6.989,-9.585 -9.293,-15.033 -0.977,-2.309 -1.796,-4.655 -2.416,-6.99 -0.903,-3.403 -1.399,-6.779 -1.399,-9.973 v -10.083 c 0,-3.193 0.496,-6.57 1.399,-9.973 1.36,5.124 3.644,10.306 6.562,15.015"
             style="display:inline;fill:#33da19;fill-opacity:1;fill-rule:nonzero;stroke:none;stroke-opacity:0.18"
             transform="matrix(0.35277776,0,0,-0.35277776,154.98045,103.0129)"
             clip-path="url(#clipPath44-5)" /><path
             id="path531"
             d="m -114.499,-13.207 c -14.115,0 -28.229,-3.386 -38.936,-10.16 l -19.021,-12.033 -13.565,-8.582 -22.49,-14.228 c -0.398,-0.252 -0.79,-0.53 -1.183,-0.803 -2.699,-1.881 -5.27,-4.263 -7.628,-6.992 -3.762,-4.355 -6.975,-9.573 -9.276,-15.013 -0.972,-2.3 -1.788,-4.635 -2.407,-6.961 -0.045,-0.168 -0.089,-0.337 -0.132,-0.505 -0.825,-3.242 -1.276,-6.453 -1.276,-9.498 V -108 c 0,-3.21 0.502,-6.606 1.414,-10.027 1.317,4.943 3.492,9.94 6.268,14.511 0.102,0.169 0.206,0.337 0.31,0.505 1.542,2.482 3.266,4.821 5.116,6.96 2.696,3.119 5.668,5.8 8.794,7.778 l 11.437,7.235 11.053,6.993 13.565,8.582 10.196,6.45 8.825,5.583 c 10.707,6.774 24.821,10.16 38.936,10.16 z"
             style="display:inline;fill:#1981da;fill-opacity:1;fill-rule:nonzero;stroke:none;stroke-opacity:0.18"
             transform="matrix(0.35277776,0,0,-0.35277776,154.98045,103.0129)"
             clip-path="url(#clipPath44-5)" /><path
             id="path533"
             d="m 0.006,-87.979 c -1.365,-5.131 -3.658,-10.32 -6.584,-15.032 -3.79,-6.102 -8.64,-11.402 -13.909,-14.735 l -36.056,-22.81 -19.021,-12.033 c -10.707,-6.774 -24.821,-10.161 -38.935,-10.161 v -30.025 c 14.114,0 28.228,3.387 38.935,10.161 l 19.021,12.033 36.056,22.81 c 9.332,5.904 17.349,17.976 20.487,29.744 0.912,3.421 1.414,6.817 1.414,10.027 v 10.018 c 0,3.045 -0.451,6.256 -1.276,9.498 -0.043,0.168 -0.087,0.337 -0.132,0.505"
             style="display:inline;fill:#1981da;fill-opacity:1;fill-rule:nonzero;stroke:none;stroke-opacity:0.18"
             transform="matrix(0.35277776,0,0,-0.35277776,154.98045,103.0129)"
             clip-path="url(#clipPath44-5)" /><path
             id="path535"
             d="m -6.546,-59.013 c -1.546,-2.494 -3.275,-4.844 -5.131,-6.992 -2.701,-3.127 -5.678,-5.815 -8.81,-7.797 l -11.438,-7.236 -24.618,-15.574 -19.021,-12.033 c -10.707,-6.774 -24.821,-10.161 -38.935,-10.161 v -30.024 c 14.114,0 28.228,3.387 38.935,10.161 l 19.021,12.033 36.056,22.809 c 3.125,1.978 6.097,4.658 8.793,7.776 3.77,4.359 6.989,9.585 9.293,15.033 0.977,2.309 1.796,4.655 2.416,6.991 0.903,3.402 1.399,6.779 1.399,9.972 v 10.083 c 0,3.194 -0.496,6.57 -1.399,9.973 -1.36,-5.123 -3.644,-10.306 -6.561,-15.014"
             style="display:inline;fill:#33da19;fill-opacity:1;fill-rule:nonzero;stroke:none;stroke-opacity:0.18"
             transform="matrix(0.35277776,0,0,-0.35277776,154.98045,103.0129)"
             clip-path="url(#clipPath44-5)" /></g></g></g></g></svg>
