<svg id="Layer_1" data-name="Layer 1" xmlns="http://www.w3.org/2000/svg" viewBox="0 0 64 64" xmlns:bx="https://boxy-svg.com">
  <bx:title>SVG_Artboards</bx:title>
  <path d="M 25.822 11.806 C 32.545 7.924 39.693 6.245 46.623 6.397 C 46.304 7.377 46.032 8.39 45.776 9.392 C 26.489 9.446 8.822 24.887 8.822 46.447 C 8.822 47.928 8.91 49.396 9.084 50.845 C 8.079 51.645 7.209 52.524 6.698 53.545 C 6.632 53.678 6.567 53.811 6.503 53.946 C 6.057 51.537 5.822 49.033 5.822 46.447 C 5.822 32.156 13.446 18.951 25.822 11.806 Z" style="transform-box: fill-box; transform-origin: 50% 50%;" transform="matrix(1, 0.000011, -0.000011, 1, 0, 0)"></path>
  <polygon points="23.339 34.385 20.679 21.265 33.799 23.915 31.019 26.695 39.989 35.665 35.079 40.575 26.109 31.605 23.339 34.385" style="fill:#787878"></polygon>
  <circle cx="7.593" cy="51.092" r="3.86" style="fill:#de4130"></circle>
  <path d="M 7.593 56.082 C 3.744 56.082 1.338 51.915 3.263 48.582 C 5.187 45.249 9.999 45.249 11.923 48.582 C 12.362 49.342 12.593 50.204 12.593 51.082 C 12.593 53.843 10.354 56.082 7.593 56.082 Z M 7.593 48.362 C 5.491 48.362 4.178 50.637 5.229 52.457 C 6.28 54.277 8.906 54.277 9.957 52.457 C 10.197 52.042 10.323 51.571 10.323 51.092 C 10.307 49.596 9.089 48.392 7.593 48.392 L 7.593 48.362 Z" style="fill:#6f6f59"></path>
  <circle cx="45.114" cy="7.953" r="3.86" style="fill:#de4130"></circle>
  <path d="M 45.114 12.933 C 41.265 12.933 38.859 8.766 40.784 5.433 C 42.708 2.1 47.52 2.1 49.444 5.433 C 49.883 6.193 50.114 7.055 50.114 7.933 C 50.114 10.694 47.875 12.933 45.114 12.933 Z M 45.114 5.223 C 43.012 5.223 41.699 7.498 42.75 9.318 C 43.801 11.138 46.427 11.138 47.478 9.318 C 47.718 8.903 47.844 8.432 47.844 7.953 C 47.844 6.445 46.622 5.223 45.114 5.223 Z" style="fill:#6f6f59"></path>
  <circle cx="56.731" cy="55.275" r="3.86" style="fill: rgb(222, 65, 48); stroke-width: 1;"></circle>
  <path d="M 56.731 60.255 C 52.882 60.255 50.476 56.088 52.401 52.755 C 54.325 49.422 59.137 49.422 61.061 52.755 C 61.5 53.515 61.731 54.377 61.731 55.255 C 61.731 58.016 59.492 60.255 56.731 60.255 Z M 56.731 52.545 C 54.629 52.545 53.316 54.82 54.367 56.64 C 55.418 58.46 58.044 58.46 59.095 56.64 C 59.335 56.225 59.461 55.754 59.461 55.275 C 59.461 53.767 58.239 52.545 56.731 52.545 Z" style="fill: rgb(111, 111, 89); stroke-width: 1;"></path>
</svg>