<svg id="Layer_1" data-name="Layer 1" xmlns="http://www.w3.org/2000/svg" viewBox="0 0 64 64" xmlns:bx="https://boxy-svg.com">
  <bx:title>SVG_Artboards</bx:title>
  <path d="M 58.104 27.955 H 62.605 V 73.544 H 58.104 V 27.955 Z" style="transform-box: fill-box; transform-origin: 50% 50%;" transform="matrix(0.731354, 0.681998, -0.681998, 0.731354, -32.510885, -19.165074)"></path>
  <polygon points="35.83 45.86 33.17 32.74 46.29 35.39 43.51 38.17 52.48 47.14 47.57 52.05 38.6 43.08 35.83 45.86" style="fill:#787878"></polygon>
  <circle cx="12.07" cy="48.7" r="3.86" style="fill:#de4130"></circle>
  <path d="M 12.07 53.69 C 8.221 53.69 5.815 49.523 7.74 46.19 C 9.664 42.857 14.476 42.857 16.4 46.19 C 16.839 46.95 17.07 47.812 17.07 48.69 C 17.07 51.451 14.831 53.69 12.07 53.69 Z M 12.07 45.97 C 9.968 45.97 8.655 48.245 9.706 50.065 C 10.757 51.885 13.383 51.885 14.434 50.065 C 14.674 49.65 14.8 49.179 14.8 48.7 C 14.784 47.204 13.566 46 12.07 46 L 12.07 45.97 Z" style="fill:#6f6f59"></path>
  <circle cx="43.43" cy="14.65" r="3.86" style="fill:#de4130"></circle>
  <path d="M 43.43 19.63 C 39.581 19.63 37.175 15.463 39.1 12.13 C 41.024 8.797 45.836 8.797 47.76 12.13 C 48.199 12.89 48.43 13.752 48.43 14.63 C 48.43 17.391 46.191 19.63 43.43 19.63 Z M 43.43 11.92 C 41.328 11.92 40.015 14.195 41.066 16.015 C 42.117 17.835 44.743 17.835 45.794 16.015 C 46.034 15.6 46.16 15.129 46.16 14.65 C 46.16 13.142 44.938 11.92 43.43 11.92 Z" style="fill:#6f6f59"></path>
</svg>