<svg xmlns="http://www.w3.org/2000/svg" viewBox="0 0 56.8 56.8" width="56.8px" height="56.8px" xmlns:bx="https://boxy-svg.com">
  <g id="Layer_1" transform="matrix(1, 0, 0, 1, -542.203979, -93.115997)">
    <bx:title>SVG_Artboards</bx:title>
    <circle cx="558.044" cy="134.236" r="6.77" style="fill: rgb(40, 150, 211); stroke-width: 1;"></circle>
    <path d="M 558.044 142.136 C 551.962 142.136 548.161 135.553 551.202 130.286 C 554.243 125.019 561.844 125.019 564.885 130.286 C 565.579 131.487 565.944 132.849 565.944 134.236 C 565.938 138.597 562.404 142.131 558.044 142.136 Z M 558.044 128.586 C 553.694 128.578 550.968 133.282 553.136 137.052 C 555.304 140.823 560.74 140.833 562.922 137.07 C 563.421 136.209 563.684 135.231 563.684 134.236 C 563.684 131.12 561.16 128.592 558.044 128.586 L 558.044 128.586 Z" style="fill: rgb(111, 111, 89); stroke-width: 1;"></path>
    <circle cx="580.414" cy="124.836" r="10.07" style="fill: rgb(167, 210, 140); stroke-width: 1;"></circle>
    <path d="M 580.414 136.046 C 571.784 136.054 566.382 126.717 570.69 119.24 C 574.999 111.763 585.785 111.753 590.107 119.222 C 591.094 120.929 591.614 122.865 591.614 124.836 C 591.608 131.021 586.599 136.035 580.414 136.046 Z M 580.414 115.896 C 573.524 115.935 569.26 123.417 572.738 129.364 C 576.216 135.312 584.828 135.263 588.239 129.278 C 589.011 127.924 589.415 126.394 589.414 124.836 C 589.381 119.889 585.361 115.896 580.414 115.896 L 580.414 115.896 Z" style="fill: rgb(111, 111, 89); stroke-width: 1;"></path>
    <polygon points="582.314 143.596 579.654 130.476 592.774 133.126 589.994 135.906 598.964 144.876 594.054 149.786 585.084 140.816 582.314 143.596" style="fill: rgb(120, 120, 120); stroke-width: 1;"></polygon>
    <rect x="547.382" y="98.465" width="18.707" height="17.8" rx="3" ry="3" style="stroke: rgb(111, 111, 89); stroke-width: 2.5px; fill: rgb(235, 206, 51);"></rect>
  </g>
</svg>